<svg width="16" height="19" viewBox="0 0 16 19" fill="none" xmlns="http://www.w3.org/2000/svg">
<path fill-rule="evenodd" clip-rule="evenodd" d="M7.56082 1.29614C6.00984 1.29614 4.75252 2.55346 4.75252 4.10445C4.75252 5.65543 6.00984 6.91275 7.56082 6.91275C9.11181 6.91275 10.3691 5.65543 10.3691 4.10445C10.3691 2.55346 9.11181 1.29614 7.56082 1.29614ZM3.45638 4.10445C3.45638 1.83762 5.294 0 7.56082 0C9.82765 0 11.6653 1.83762 11.6653 4.10445C11.6653 6.37127 9.82765 8.20889 7.56082 8.20889C5.294 8.20889 3.45638 6.37127 3.45638 4.10445ZM0 15.1648C0 12.5162 2.14712 10.3691 4.79572 10.3691H10.3259C12.9745 10.3691 15.1216 12.5162 15.1216 15.1648C15.1216 17.0499 13.5935 18.578 11.7085 18.578H3.41317C1.52813 18.578 0 17.0499 0 15.1648ZM4.79572 11.6653C2.86296 11.6653 1.29614 13.2321 1.29614 15.1648C1.29614 16.3341 2.24397 17.2819 3.41317 17.2819H11.7085C12.8777 17.2819 13.8255 16.3341 13.8255 15.1648C13.8255 13.2321 12.2587 11.6653 10.3259 11.6653H4.79572Z" fill="white"/>
</svg>
